<svg width="10" height="16" viewBox="0 0 10 16" fill="none" xmlns="http://www.w3.org/2000/svg">
<path d="M5.49687 0.8078C4.92188 0.8078 4.37187 1.33061 4.27187 2.08811C4.16562 2.8953 4.625 3.57186 5.2375 3.64686C5.85313 3.72186 6.47188 3.18124 6.58125 2.3728C6.69063 1.56468 6.22188 0.890613 5.6125 0.814988C5.575 0.8103 5.53437 0.8078 5.49687 0.8078ZM4.30312 3.79999C3.11562 3.99686 1.95312 5.10936 1.36562 5.86249C1.00625 6.90624 0.9125 7.94686 0.71875 8.98749L1.6 8.96249C1.80625 8.17499 1.85625 7.34061 2.25625 6.60624C2.71875 6.34999 3.09688 5.96249 3.45625 5.54999C3.25625 6.57811 3.01875 7.80936 3.04375 8.73124C3.975 10.9469 6.03437 13.1187 7.2 15.1812L8.13437 14.4219C7.23437 12.6812 6.3375 11.0969 5.1875 9.41561C5.25313 9.19374 6.54063 4.30624 6.0625 4.04374C5.43125 4.32499 4.78437 4.23124 4.30312 3.79999ZM6.55 5.63124C6.45312 6.18749 6.38438 6.72811 6.2375 7.28124C6.37813 7.44999 6.47187 7.60936 6.68437 7.75936C7.49687 8.23749 8.30937 8.58124 9.12187 8.90624L9.40938 7.97186L6.9875 6.79686C6.85313 6.40624 6.74063 6.00936 6.55 5.63124ZM2.84688 9.69061C2.6875 10.4719 2.54062 11.2594 2.48438 12.0812C1.9875 13.0719 1.36875 13.6937 0.59375 14.4687L1.53125 15.1937C2.25312 14.4125 3.09062 13.725 3.61562 12.8875L4.05312 11.5562C3.5625 10.9625 3.16563 10.3437 2.84688 9.69061Z" fill="#585656"/>
</svg>
