<svg width="23" height="23" viewBox="0 0 23 23" fill="none" xmlns="http://www.w3.org/2000/svg">
<path d="M1.25 0.5C1.05109 0.5 0.860322 0.579018 0.71967 0.71967C0.579018 0.860322 0.5 1.05109 0.5 1.25C0.5 1.44891 0.579018 1.63968 0.71967 1.78033C0.860322 1.92098 1.05109 2 1.25 2H2.915L3.5165 4.4105L5.7635 16.388C5.79567 16.5599 5.88688 16.7151 6.02137 16.8268C6.15585 16.9386 6.32515 16.9998 6.5 17H8C7.20435 17 6.44129 17.3161 5.87868 17.8787C5.31607 18.4413 5 19.2044 5 20C5 20.7956 5.31607 21.5587 5.87868 22.1213C6.44129 22.6839 7.20435 23 8 23C8.79565 23 9.55871 22.6839 10.1213 22.1213C10.6839 21.5587 11 20.7956 11 20C11 19.2044 10.6839 18.4413 10.1213 17.8787C9.55871 17.3161 8.79565 17 8 17H18.5C17.7044 17 16.9413 17.3161 16.3787 17.8787C15.8161 18.4413 15.5 19.2044 15.5 20C15.5 20.7956 15.8161 21.5587 16.3787 22.1213C16.9413 22.6839 17.7044 23 18.5 23C19.2957 23 20.0587 22.6839 20.6213 22.1213C21.1839 21.5587 21.5 20.7956 21.5 20C21.5 19.2044 21.1839 18.4413 20.6213 17.8787C20.0587 17.3161 19.2957 17 18.5 17H20C20.1749 16.9998 20.3442 16.9386 20.4786 16.8268C20.6131 16.7151 20.7043 16.5599 20.7365 16.388L22.9865 4.388C23.0068 4.27976 23.0029 4.16838 22.9753 4.06178C22.9477 3.95518 22.8969 3.85597 22.8266 3.77121C22.7563 3.68644 22.6682 3.6182 22.5685 3.57133C22.4689 3.52445 22.3601 3.5001 22.25 3.5H4.835L4.2275 1.0685C4.18701 0.906176 4.09342 0.762048 3.9616 0.659037C3.82978 0.556026 3.6673 0.500046 3.5 0.5H1.25ZM9.5 20C9.5 20.3978 9.34196 20.7794 9.06066 21.0607C8.77936 21.342 8.39783 21.5 8 21.5C7.60218 21.5 7.22065 21.342 6.93934 21.0607C6.65804 20.7794 6.5 20.3978 6.5 20C6.5 19.6022 6.65804 19.2206 6.93934 18.9393C7.22065 18.658 7.60218 18.5 8 18.5C8.39783 18.5 8.77936 18.658 9.06066 18.9393C9.34196 19.2206 9.5 19.6022 9.5 20ZM20 20C20 20.3978 19.842 20.7794 19.5607 21.0607C19.2794 21.342 18.8978 21.5 18.5 21.5C18.1022 21.5 17.7206 21.342 17.4393 21.0607C17.158 20.7794 17 20.3978 17 20C17 19.6022 17.158 19.2206 17.4393 18.9393C17.7206 18.658 18.1022 18.5 18.5 18.5C18.8978 18.5 19.2794 18.658 19.5607 18.9393C19.842 19.2206 20 19.6022 20 20ZM14 7.25V9.5H16.25C16.4489 9.5 16.6397 9.57902 16.7803 9.71967C16.921 9.86032 17 10.0511 17 10.25C17 10.4489 16.921 10.6397 16.7803 10.7803C16.6397 10.921 16.4489 11 16.25 11H14V13.25C14 13.4489 13.921 13.6397 13.7803 13.7803C13.6397 13.921 13.4489 14 13.25 14C13.0511 14 12.8603 13.921 12.7197 13.7803C12.579 13.6397 12.5 13.4489 12.5 13.25V11H10.25C10.0511 11 9.86032 10.921 9.71967 10.7803C9.57902 10.6397 9.5 10.4489 9.5 10.25C9.5 10.0511 9.57902 9.86032 9.71967 9.71967C9.86032 9.57902 10.0511 9.5 10.25 9.5H12.5V7.25C12.5 7.05109 12.579 6.86032 12.7197 6.71967C12.8603 6.57902 13.0511 6.5 13.25 6.5C13.4489 6.5 13.6397 6.57902 13.7803 6.71967C13.921 6.86032 14 7.05109 14 7.25Z" fill="white"/>
</svg>
