<svg width="24" height="24" viewBox="0 0 24 24" fill="none" xmlns="http://www.w3.org/2000/svg">
<path fill-rule="evenodd" clip-rule="evenodd" d="M2.40039 9.6001C2.40039 9.28184 2.52682 8.97661 2.75186 8.75157C2.97691 8.52653 3.28213 8.4001 3.60039 8.4001H15.97C16.2883 8.4001 16.5935 8.52653 16.8185 8.75157C17.0436 8.97661 17.17 9.28184 17.17 9.6001C17.17 9.91836 17.0436 10.2236 16.8185 10.4486C16.5935 10.6737 16.2883 10.8001 15.97 10.8001H3.60039C3.28213 10.8001 2.97691 10.6737 2.75186 10.4486C2.52682 10.2236 2.40039 9.91836 2.40039 9.6001ZM2.40039 4.8001C2.40039 4.48184 2.52682 4.17661 2.75186 3.95157C2.97691 3.72653 3.28213 3.6001 3.60039 3.6001H20.4004C20.7187 3.6001 21.0239 3.72653 21.2489 3.95157C21.474 4.17661 21.6004 4.48184 21.6004 4.8001C21.6004 5.11836 21.474 5.42358 21.2489 5.64863C21.0239 5.87367 20.7187 6.0001 20.4004 6.0001H3.60039C3.28213 6.0001 2.97691 5.87367 2.75186 5.64863C2.52682 5.42358 2.40039 5.11836 2.40039 4.8001ZM2.40039 14.4001C2.40039 14.0818 2.52682 13.7766 2.75186 13.5516C2.97691 13.3265 3.28213 13.2001 3.60039 13.2001H20.4004C20.7187 13.2001 21.0239 13.3265 21.2489 13.5516C21.474 13.7766 21.6004 14.0818 21.6004 14.4001C21.6004 14.7184 21.474 15.0236 21.2489 15.2486C21.0239 15.4737 20.7187 15.6001 20.4004 15.6001H3.60039C3.28213 15.6001 2.97691 15.4737 2.75186 15.2486C2.52682 15.0236 2.40039 14.7184 2.40039 14.4001ZM2.40039 19.2001C2.40039 18.8818 2.52682 18.5766 2.75186 18.3516C2.97691 18.1265 3.28213 18.0001 3.60039 18.0001H15.97C16.2883 18.0001 16.5935 18.1265 16.8185 18.3516C17.0436 18.5766 17.17 18.8818 17.17 19.2001C17.17 19.5184 17.0436 19.8236 16.8185 20.0486C16.5935 20.2737 16.2883 20.4001 15.97 20.4001H3.60039C3.28213 20.4001 2.97691 20.2737 2.75186 20.0486C2.52682 19.8236 2.40039 19.5184 2.40039 19.2001Z" fill="#52D116"/>
</svg>
