<svg width="24" height="24" viewBox="0 0 24 24" fill="none" xmlns="http://www.w3.org/2000/svg">
<g clip-path="url(#clip0_5217_6433)">
<path d="M5 20.5C4.07174 20.5 3.1815 20.1312 2.52513 19.4748C1.86875 18.8184 1.5 17.9282 1.5 17C1.5 16.0717 1.86875 15.1815 2.52513 14.5251C3.1815 13.8687 4.07174 13.5 5 13.5C5.92826 13.5 6.8185 13.8687 7.47487 14.5251C8.13125 15.1815 8.5 16.0717 8.5 17C8.5 17.9282 8.13125 18.8184 7.47487 19.4748C6.8185 20.1312 5.92826 20.5 5 20.5ZM5 12C3.67392 12 2.40215 12.5267 1.46447 13.4644C0.526784 14.4021 0 15.6739 0 17C0 18.326 0.526784 19.5978 1.46447 20.5355C2.40215 21.4732 3.67392 22 5 22C6.32608 22 7.59785 21.4732 8.53553 20.5355C9.47322 19.5978 10 18.326 10 17C10 15.6739 9.47322 14.4021 8.53553 13.4644C7.59785 12.5267 6.32608 12 5 12ZM14.8 9.99995H19V8.19995H15.8L13.86 4.92995C13.57 4.42995 13 4.09995 12.4 4.09995C11.93 4.09995 11.5 4.28995 11.2 4.59995L7.5 8.28995C7.19 8.59995 7 8.99995 7 9.49995C7 10.13 7.33 10.66 7.85 10.97L11.2 13V18H13V11.5L10.75 9.84995L13.07 7.49995M19 20.5C18.0717 20.5 17.1815 20.1312 16.5251 19.4748C15.8687 18.8184 15.5 17.9282 15.5 17C15.5 16.0717 15.8687 15.1815 16.5251 14.5251C17.1815 13.8687 18.0717 13.5 19 13.5C19.9283 13.5 20.8185 13.8687 21.4749 14.5251C22.1313 15.1815 22.5 16.0717 22.5 17C22.5 17.9282 22.1313 18.8184 21.4749 19.4748C20.8185 20.1312 19.9283 20.5 19 20.5ZM19 12C17.6739 12 16.4021 12.5267 15.4645 13.4644C14.5268 14.4021 14 15.6739 14 17C14 18.326 14.5268 19.5978 15.4645 20.5355C16.4021 21.4732 17.6739 22 19 22C19.6566 22 20.3068 21.8706 20.9134 21.6193C21.52 21.3681 22.0712 20.9998 22.5355 20.5355C22.9998 20.0712 23.3681 19.52 23.6194 18.9134C23.8707 18.3067 24 17.6566 24 17C24 16.3433 23.8707 15.6932 23.6194 15.0865C23.3681 14.4799 22.9998 13.9287 22.5355 13.4644C22.0712 13.0001 21.52 12.6318 20.9134 12.3806C20.3068 12.1293 19.6566 12 19 12ZM16 4.79995C17 4.79995 17.8 3.99995 17.8 2.99995C17.8 1.99995 17 1.19995 16 1.19995C15 1.19995 14.2 1.99995 14.2 2.99995C14.2 3.99995 15 4.79995 16 4.79995Z" fill="#121212" fill-opacity="0.5"/>
<rect x="3" y="4.32715" width="6" height="5.45383" rx="1" transform="rotate(-46.15 3 4.32715)" fill="#121212" fill-opacity="0.5"/>
</g>
<defs>
<clipPath id="clip0_5217_6433">
<rect width="24" height="24" fill="white"/>
</clipPath>
</defs>
</svg>
