<svg width="42" height="42" viewBox="0 0 42 42" fill="none" xmlns="http://www.w3.org/2000/svg">
<path d="M5.25 21H21V23.625H5.25V21ZM2.625 14.4375H15.75V17.0625H2.625V14.4375Z" fill="#0071E4"/>
<path d="M39.2688 21.7954L35.3313 12.6079C35.2303 12.3717 35.0621 12.1705 34.8477 12.0291C34.6332 11.8877 34.382 11.8124 34.1251 11.8125H30.1876V9.1875C30.1876 8.8394 30.0494 8.50556 29.8032 8.25942C29.5571 8.01328 29.2232 7.875 28.8751 7.875H7.87513V10.5H27.5626V26.9797C26.9646 27.327 26.4412 27.7893 26.0226 28.3398C25.6041 28.8904 25.2987 29.5183 25.124 30.1875H16.8763C16.5568 28.9503 15.7971 27.872 14.7395 27.1548C13.6819 26.4377 12.3991 26.1308 11.1314 26.2918C9.86382 26.4529 8.69842 27.0707 7.85371 28.0294C7.009 28.9882 6.54297 30.2222 6.54297 31.5C6.54297 32.7778 7.009 34.0118 7.85371 34.9706C8.69842 35.9293 9.86382 36.5471 11.1314 36.7082C12.3991 36.8692 13.6819 36.5623 14.7395 35.8452C15.7971 35.128 16.5568 34.0497 16.8763 32.8125H25.124C25.4095 33.9389 26.0625 34.938 26.9796 35.6517C27.8967 36.3653 29.0256 36.7528 30.1876 36.7528C31.3497 36.7528 32.4786 36.3653 33.3957 35.6517C34.3128 34.938 34.9657 33.9389 35.2513 32.8125H38.0626C38.4107 32.8125 38.7446 32.6742 38.9907 32.4281C39.2369 32.1819 39.3751 31.8481 39.3751 31.5V22.3125C39.3752 22.1347 39.339 21.9587 39.2688 21.7954ZM11.8126 34.125C11.2935 34.125 10.7859 33.971 10.3543 33.6826C9.92258 33.3942 9.58613 32.9842 9.38745 32.5045C9.18877 32.0249 9.13679 31.4971 9.23807 30.9879C9.33936 30.4787 9.58937 30.011 9.95648 29.6438C10.3236 29.2767 10.7913 29.0267 11.3005 28.9254C11.8097 28.8242 12.3375 28.8761 12.8172 29.0748C13.2968 29.2735 13.7068 29.6099 13.9952 30.0416C14.2837 30.4733 14.4376 30.9808 14.4376 31.5C14.4369 32.196 14.1602 32.8633 13.668 33.3554C13.1759 33.8475 12.5086 34.1243 11.8126 34.125ZM30.1876 14.4375H33.2589L36.0729 21H30.1876V14.4375ZM30.1876 34.125C29.6685 34.125 29.1609 33.971 28.7293 33.6826C28.2976 33.3942 27.9611 32.9842 27.7625 32.5045C27.5638 32.0249 27.5118 31.4971 27.6131 30.9879C27.7144 30.4787 27.9644 30.011 28.3315 29.6438C28.6986 29.2767 29.1663 29.0267 29.6755 28.9254C30.1847 28.8242 30.7125 28.8761 31.1922 29.0748C31.6718 29.2735 32.0818 29.6099 32.3702 30.0416C32.6587 30.4733 32.8126 30.9808 32.8126 31.5C32.8119 32.196 32.5352 32.8633 32.043 33.3554C31.5509 33.8475 30.8836 34.1243 30.1876 34.125ZM36.7501 30.1875H35.2513C34.9621 29.0633 34.3081 28.0667 33.3918 27.3542C32.4754 26.6416 31.3485 26.2532 30.1876 26.25V23.625H36.7501V30.1875Z" fill="#0071E4"/>
</svg>
