<svg width="36" height="28" viewBox="0 0 36 28" fill="none" xmlns="http://www.w3.org/2000/svg">
<path d="M26.75 8.75V5.25C26.75 4.32174 26.3813 3.4315 25.7249 2.77513C25.0685 2.11875 24.1783 1.75 23.25 1.75H5.75C4.82174 1.75 3.9315 2.11875 3.27513 2.77513C2.61875 3.4315 2.25 4.32174 2.25 5.25V15.75C2.25 16.6783 2.61875 17.5685 3.27513 18.2249C3.9315 18.8813 4.82174 19.25 5.75 19.25H9.25M12.75 26.25H30.25C31.1783 26.25 32.0685 25.8813 32.7249 25.2249C33.3813 24.5685 33.75 23.6783 33.75 22.75V12.25C33.75 11.3217 33.3813 10.4315 32.7249 9.77513C32.0685 9.11875 31.1783 8.75 30.25 8.75H12.75C11.8217 8.75 10.9315 9.11875 10.2751 9.77513C9.61875 10.4315 9.25 11.3217 9.25 12.25V22.75C9.25 23.6783 9.61875 24.5685 10.2751 25.2249C10.9315 25.8813 11.8217 26.25 12.75 26.25ZM25 17.5C25 18.4283 24.6313 19.3185 23.9749 19.9749C23.3185 20.6313 22.4283 21 21.5 21C20.5717 21 19.6815 20.6313 19.0251 19.9749C18.3687 19.3185 18 18.4283 18 17.5C18 16.5717 18.3687 15.6815 19.0251 15.0251C19.6815 14.3687 20.5717 14 21.5 14C22.4283 14 23.3185 14.3687 23.9749 15.0251C24.6313 15.6815 25 16.5717 25 17.5V17.5Z" stroke="#0071E4" stroke-width="2.7525" stroke-linecap="round" stroke-linejoin="round"/>
</svg>
