<svg width="34" height="28" viewBox="0 0 34 28" fill="none" xmlns="http://www.w3.org/2000/svg">
<path d="M2.375 11.625H5.75V20.625H3.5C3.20163 20.625 2.91548 20.7436 2.7045 20.9545C2.49353 21.1655 2.375 21.4517 2.375 21.75C2.375 22.0484 2.49353 22.3346 2.7045 22.5455C2.91548 22.7565 3.20163 22.875 3.5 22.875H30.5C30.7984 22.875 31.0845 22.7565 31.2955 22.5455C31.5065 22.3346 31.625 22.0484 31.625 21.75C31.625 21.4517 31.5065 21.1655 31.2955 20.9545C31.0845 20.7436 30.7984 20.625 30.5 20.625H28.25V11.625H31.625C31.8695 11.6246 32.1072 11.5445 32.3021 11.397C32.497 11.2494 32.6385 11.0424 32.7053 10.8072C32.772 10.572 32.7603 10.3215 32.672 10.0935C32.5836 9.86555 32.4234 9.67257 32.2156 9.54379L17.5906 0.54379C17.4137 0.432705 17.2089 0.373779 17 0.373779C16.7911 0.373779 16.5863 0.432705 16.4094 0.54379L1.78437 9.54379C1.57657 9.67257 1.41637 9.86555 1.32803 10.0935C1.23968 10.3215 1.228 10.572 1.29474 10.8072C1.36148 11.0424 1.50302 11.2494 1.69793 11.397C1.89285 11.5445 2.13053 11.6246 2.375 11.625ZM8 11.625H12.5V20.625H8V11.625ZM19.25 11.625V20.625H14.75V11.625H19.25ZM26 20.625H21.5V11.625H26V20.625ZM17 2.82191L27.6453 9.37504H6.35469L17 2.82191ZM33.875 26.25C33.875 26.5484 33.7565 26.8346 33.5455 27.0455C33.3345 27.2565 33.0484 27.375 32.75 27.375H1.25C0.951631 27.375 0.665483 27.2565 0.454505 27.0455C0.243526 26.8346 0.125 26.5484 0.125 26.25C0.125 25.9517 0.243526 25.6655 0.454505 25.4545C0.665483 25.2436 0.951631 25.125 1.25 25.125H32.75C33.0484 25.125 33.3345 25.2436 33.5455 25.4545C33.7565 25.6655 33.875 25.9517 33.875 26.25Z" fill="#0071E4"/>
</svg>
