<svg width="29" height="35" viewBox="0 0 29 35" fill="none" xmlns="http://www.w3.org/2000/svg">
<path d="M18.9531 1.25L27 9.29687M2.85937 33.4375H25.3906C25.8175 33.4375 26.2268 33.2679 26.5286 32.9661C26.8304 32.6643 27 32.255 27 31.8281V9.29687H18.9531V1.25H2.85937C2.43254 1.25 2.02319 1.41956 1.72138 1.72137C1.41956 2.02319 1.25 2.43254 1.25 2.85937V31.8281C1.25 32.255 1.41956 32.6643 1.72138 32.9661C2.02319 33.2679 2.43254 33.4375 2.85937 33.4375Z" stroke="#0071E4" stroke-width="2.25" stroke-linecap="round" stroke-linejoin="round"/>
<path d="M10.2625 14.9297H17.9875L20.5625 18.2434L14.125 26.1953L7.6875 18.2434L10.2625 14.9297Z" stroke="#0071E4" stroke-width="2.25" stroke-linecap="round" stroke-linejoin="round"/>
</svg>
