<svg width="37" height="42" viewBox="0 0 37 42" fill="none" xmlns="http://www.w3.org/2000/svg">
<path d="M20.7188 39.2981L23.9495 37.0288C28.0798 34.1249 31.2767 30.0737 33.1485 25.3719C35.0202 20.6701 35.4853 15.5219 34.4869 10.5585C34.4376 10.314 34.3329 10.084 34.1809 9.88661C34.0289 9.68918 33.8338 9.52952 33.6105 9.41999L18.4999 2L3.39118 9.41999C3.16756 9.52929 2.97201 9.68884 2.8197 9.88629C2.66739 10.0837 2.56241 10.3138 2.5129 10.5585C1.51465 15.5221 1.98008 20.6704 3.85215 25.3722C5.72421 30.074 8.92156 34.1251 13.0522 37.0288L16.2829 39.2981C16.9331 39.755 17.7074 40 18.5008 40C19.2943 40 20.0686 39.755 20.7188 39.2981V39.2981Z" stroke="#0071E4" stroke-width="3.6" stroke-linecap="round" stroke-linejoin="round"/>
</svg>
